<?xml version="1.0" encoding="UTF-8" standalone="no"?>
<!-- Created with Inkscape (http://www.inkscape.org/) -->

<svg
   xmlns:dc="http://purl.org/dc/elements/1.1/"
   xmlns:cc="http://creativecommons.org/ns#"
   xmlns:rdf="http://www.w3.org/1999/02/22-rdf-syntax-ns#"
   xmlns:svg="http://www.w3.org/2000/svg"
   xmlns="http://www.w3.org/2000/svg"
   version="1.1"
   width="48"
   height="48"
   id="svg2">
  <defs
     id="defs4">
    <marker
       refX="0"
       refY="0"
       orient="auto"
       id="Arrow1Mend"
       style="overflow:visible">
      <path
         d="M 0,0 5,-5 -12.5,0 5,5 0,0 z"
         transform="matrix(-0.4,0,0,-0.4,-4,0)"
         id="path3780"
         style="fill-rule:evenodd;stroke:#000000;stroke-width:1pt" />
    </marker>
  </defs>
  <metadata
     id="metadata7">
    <rdf:RDF>
      <cc:Work
         rdf:about="">
        <dc:format>image/svg+xml</dc:format>
        <dc:type
           rdf:resource="http://purl.org/dc/dcmitype/StillImage" />
        <dc:title></dc:title>
      </cc:Work>
    </rdf:RDF>
  </metadata>
  <g
     transform="translate(0,-1004.3622)"
     id="layer1">
    <path
       d="m 13.040017,1038.8661 c 0.968848,0.8125 24.301955,-0.4296 25.030369,-1.3453 0.728414,-0.9157 1.30137,-18.6674 0.122151,-19.6892 -1.179219,-1.0218 -28.3369168,3.8406 -29.0482508,4.8185 -0.711333,0.9779 2.9268828,15.4035 3.8957308,16.216 z"
       id="path5547"
       style="fill:#000000;stroke:#000000;stroke-width:14;stroke-linejoin:round;stroke-miterlimit:4;stroke-dasharray:none;marker-mid:none" />
    <path
       d="m 13.040017,1038.8661 c 0.968848,0.8125 24.301955,-0.4296 25.030369,-1.3453 0.728414,-0.9157 1.30137,-18.6674 0.122151,-19.6892 -1.179219,-1.0218 -28.3369168,3.8406 -29.0482508,4.8185 -0.711333,0.9779 2.9268828,15.4035 3.8957308,16.216 z"
       id="path2993-9"
       style="fill:#0000ff;stroke:#ffffff;stroke-width:3.5;stroke-linejoin:round;stroke-miterlimit:4;stroke-dasharray:none;marker-mid:none" />
  </g>
</svg>
